<?xml version="1.0" standalone="no"?>
<!DOCTYPE svg PUBLIC "-//W3C//DTD SVG 20010904//EN"
 "http://www.w3.org/TR/2001/REC-SVG-20010904/DTD/svg10.dtd">
<svg version="1.0" xmlns="http://www.w3.org/2000/svg"
 width="803.000000pt" height="980.000000pt" viewBox="0 0 803.000000 980.000000"
 preserveAspectRatio="xMidYMid meet">

<g transform="translate(0.000000,980.000000) scale(0.100000,-0.100000)"
fill="#000000" stroke="none">
<path d="M2680 9430 l0 -120 -367 -2 -368 -3 -3 -122 -3 -123 -239 0 -240 0 0
-120 0 -120 -250 0 -250 0 0 -125 0 -125 -120 0 -120 0 0 -120 0 -119 -122 -3
-123 -3 -3 -122 -3 -123 -119 0 -120 0 0 -3185 0 -3185 125 0 125 0 0 -120 0
-120 120 0 120 0 0 -125 0 -125 120 0 120 0 0 -120 0 -120 248 -2 247 -3 3
-122 3 -123 239 0 240 0 0 -120 0 -120 370 0 370 0 0 -125 0 -125 1345 0 1344
0 3 123 3 122 368 3 367 2 0 120 0 120 240 0 239 0 3 118 3 117 243 3 242 2 0
125 0 125 125 0 124 0 3 123 3 122 117 3 117 3 3 117 3 117 123 3 122 3 0
3184 0 3185 -120 0 -119 0 -3 123 -3 122 -122 3 -123 3 0 119 0 119 -122 3
-123 3 -3 123 -3 122 -239 0 -240 0 0 120 0 120 -245 0 -244 0 -3 123 -3 122
-367 3 -368 2 0 120 0 120 -1345 0 -1345 0 0 -120z m2692 -732 l3 -123 366 -5
367 -5 -2 -117 -1 -118 245 -2 245 -3 3 -122 3 -123 119 0 120 0 0 -119 c0
-99 3 -120 16 -125 9 -3 62 -6 120 -6 l103 0 3 -337 c2 -186 2 -350 0 -365
l-3 -28 -120 0 -119 0 0 -120 0 -120 -120 0 -120 0 -1 -112 c-1 -62 -1 -119 0
-125 1 -10 -57 -13 -246 -15 l-248 -3 0 -115 0 -115 -365 -5 -365 -5 -3 -122
-3 -123 -1344 0 -1345 0 0 125 0 125 -370 0 c-291 0 -371 3 -369 13 1 6 1 60
0 119 l-1 108 -242 2 -243 3 -2 120 -2 120 -120 3 -121 3 0 119 0 120 -120 0
-120 0 0 25 c-1 14 -1 68 -1 120 0 52 0 208 1 345 l0 250 120 0 120 0 0 120 0
120 119 0 119 0 7 37 c3 20 5 75 4 122 l-3 86 242 3 242 2 0 120 0 120 370 0
370 0 0 120 0 120 358 3 c196 1 801 3 1344 5 l987 2 3 -122z m-4674 -1851 c21
-10 22 -16 22 -109 0 -95 -1 -98 -22 -99 -22 -1 -22 -1 2 -9 16 -5 -21 -8 -97
-9 l-123 -1 0 113 c0 63 3 117 7 121 11 10 184 4 211 -7z m6870 -52 c2 -27 1
-78 -3 -112 l-7 -63 -109 0 -109 0 0 115 0 116 113 -3 112 -3 3 -50z m-251
-327 c-2 -29 -3 -8 -3 47 0 55 1 79 3 53 2 -26 2 -71 0 -100z m-6565 50 l2
-83 3 83 4 82 99 0 100 0 0 -85 0 -85 -82 -2 -83 -2 83 -3 c80 -4 82 -5 82
-28 l0 -25 -115 0 -115 0 0 115 c0 134 19 161 22 33z m6548 -13 c0 -57 4 -95
10 -95 6 0 10 -8 10 -19 0 -17 -10 -19 -115 -20 -110 -2 -115 -1 -115 19 0 19
7 20 98 22 l97 2 -97 3 -98 4 0 89 0 90 105 0 105 0 0 -95z m-5850 -260 l0
-115 -240 0 -240 0 0 115 0 115 240 0 240 0 0 -115z m5630 0 l0 -114 -240 0
-240 0 0 114 0 115 240 0 240 0 0 -115z m-5141 -247 c0 -68 -2 -118 -5 -113
-2 6 -87 8 -239 5 l-235 -5 0 118 0 117 240 0 240 0 -1 -122z m4651 2 l0 -120
-220 0 -220 0 -2 83 -2 82 -6 -85 c-5 -64 -7 -74 -10 -40 l-3 45 -7 -45 c-5
-32 -7 -10 -8 78 l-2 122 240 0 240 0 0 -120z m-4617 -133 c7 4 166 7 355 5
l342 -3 0 -114 0 -115 -360 0 -360 0 1 123 c0 67 3 116 6 109 3 -7 10 -9 16
-5z m4126 -109 l2 -118 -361 0 -360 0 0 114 c0 68 4 116 10 118 6 2 167 3 358
3 l349 0 2 -117z m-739 -253 l0 -115 -1335 0 -1335 0 0 105 c0 113 1 121 13
118 4 -2 7 0 7 5 0 4 596 6 1325 4 l1325 -2 0 -115z"/>
<path d="M3662 8323 l-493 -3 3 -118 3 -117 363 -3 362 -2 0 -240 0 -240 -102
0 c-159 0 -148 9 -148 -131 l0 -119 -120 0 -120 0 0 -120 c0 -118 0 -120 -22
-120 -131 -3 -693 2 -699 6 -4 2 -8 166 -9 364 l0 360 240 0 240 0 0 120 0
120 -240 0 -240 0 0 -120 0 -120 -120 0 -120 0 0 -122 c0 -68 -1 -233 -2 -368
l-2 -245 122 -3 122 -3 0 -119 0 -120 245 0 245 0 0 -125 0 -125 855 0 855 0
0 125 0 125 245 0 245 0 0 120 0 119 123 3 122 3 -2 365 -2 365 -120 3 -121 3
0 119 0 120 -245 0 -245 0 0 125 0 125 -362 -2 c-200 -2 -585 -4 -856 -5z
m978 -363 l0 -120 -37 -1 c-21 0 -76 -1 -123 -2 l-85 -2 -3 -122 -3 -123 -119
0 -120 0 0 -365 0 -365 -125 0 -125 0 0 365 0 364 123 3 122 3 3 243 2 242
245 0 245 0 0 -120z m488 -247 l3 -123 -126 0 -125 0 0 -365 0 -365 -120 0
-119 0 -3 123 -3 122 -117 3 -118 3 0 224 0 225 33 2 32 1 -35 6 c-21 4 13 8
85 11 l120 5 3 122 3 122 122 4 c67 1 176 3 242 2 l120 0 3 -122z m192 -143
l-45 -7 43 -1 42 -2 0 -105 0 -105 -85 0 -85 0 0 110 c0 61 -3 110 -7 110 -5
0 -7 -49 -5 -110 l3 -110 -23 3 c-22 4 -23 8 -26 115 l-3 112 118 -2 c86 -1
106 -3 73 -8z"/>
<path d="M4198 8063 c23 -2 61 -2 85 0 23 2 4 4 -43 4 -47 0 -66 -2 -42 -4z"/>
<path d="M4330 8055 c0 -8 2 -15 4 -15 2 0 6 7 10 15 3 8 1 15 -4 15 -6 0 -10
-7 -10 -15z"/>
<path d="M4372 7965 c-1 -115 -1 -113 -12 -95 -5 8 -12 11 -15 8 -10 -9 4 -28
20 -28 19 0 21 15 14 115 l-6 90 -1 -90z"/>
<path d="M4240 7860 l-85 -6 88 -2 c52 -1 87 2 87 8 0 6 -1 9 -2 8 -2 -1 -41
-5 -88 -8z"/>
<path d="M4614 7410 c0 -91 2 -128 3 -82 2 45 2 119 0 165 -1 45 -3 8 -3 -83z"/>
<path d="M4612 7190 c0 -14 2 -19 5 -12 2 6 2 18 0 25 -3 6 -5 1 -5 -13z"/>
<path d="M4607 7145 c-4 -8 -2 -17 3 -20 6 -4 10 3 10 14 0 25 -6 27 -13 6z"/>
<path d="M5154 7465 c0 -55 1 -76 3 -47 2 29 2 74 0 100 -2 26 -3 2 -3 -53z"/>
<path d="M653 6663 c9 -2 25 -2 35 0 9 3 1 5 -18 5 -19 0 -27 -2 -17 -5z"/>
<path d="M7552 6768 c-1 -42 -5 -85 -8 -95 -5 -17 -5 -17 6 -1 6 11 9 49 7 95
l-3 78 -2 -77z"/>
<path d="M828 6403 c17 -2 47 -2 65 0 17 2 3 4 -33 4 -36 0 -50 -2 -32 -4z"/>
<path d="M7110 6392 c0 -5 14 -7 30 -4 17 2 30 6 30 8 0 2 -13 4 -30 4 -16 0
-30 -4 -30 -8z"/>
<path d="M7223 6393 c15 -2 37 -2 50 0 12 2 0 4 -28 4 -27 0 -38 -2 -22 -4z"/>
<path d="M983 6265 c0 -44 2 -61 4 -37 2 23 2 59 0 80 -2 20 -4 1 -4 -43z"/>
<path d="M1023 6250 c0 -36 2 -50 4 -32 2 17 2 47 0 65 -2 17 -4 3 -4 -33z"/>
<path d="M1138 6173 c56 -2 148 -2 205 0 56 1 10 3 -103 3 -113 0 -159 -2
-102 -3z"/>
<path d="M6621 6314 c0 -11 3 -14 6 -6 3 7 2 16 -1 19 -3 4 -6 -2 -5 -13z"/>
<path d="M6738 6173 c56 -2 148 -2 205 0 56 1 10 3 -103 3 -113 0 -159 -2
-102 -3z"/>
<path d="M1473 5975 c0 -38 2 -53 4 -32 2 20 2 52 0 70 -2 17 -4 1 -4 -38z"/>
<path d="M1997 5839 c7 -7 15 -10 18 -7 3 3 -2 9 -12 12 -14 6 -15 5 -6 -5z"/>
<path d="M2625 5840 c-16 -7 -17 -9 -3 -9 9 -1 20 4 23 9 7 11 7 11 -20 0z"/>
<path d="M2168 5833 c72 -2 192 -2 265 0 72 1 13 3 -133 3 -146 0 -205 -2
-132 -3z"/>
<path d="M5598 5833 c89 -2 235 -2 325 0 89 1 16 3 -163 3 -179 0 -252 -2
-162 -3z"/>
<path d="M5423 5765 c0 -27 2 -38 4 -22 2 15 2 37 0 50 -2 12 -4 0 -4 -28z"/>
</g>
</svg>
